<svg width="40" height="40" viewBox="0 0 40 40" fill="none" xmlns="http://www.w3.org/2000/svg">
<path d="M27.5 17.4219H12.5C12.3281 17.4219 12.1875 17.5625 12.1875 17.7344V33.4375C12.1875 33.6094 12.3281 33.75 12.5 33.75H27.5C27.6719 33.75 27.8125 33.6094 27.8125 33.4375V17.7344C27.8125 17.5625 27.6719 17.4219 27.5 17.4219ZM14.6875 19.9219H25.3125V24.4922H14.6875V19.9219ZM25.3125 31.25H14.6875V26.6797H25.3125V31.25Z" fill="url(#paint0_linear_26_1551)"/>
<path d="M16.5625 29.2188C16.5625 29.5503 16.6942 29.8682 16.9286 30.1026C17.163 30.3371 17.481 30.4688 17.8125 30.4688C18.144 30.4688 18.462 30.3371 18.6964 30.1026C18.9308 29.8682 19.0625 29.5503 19.0625 29.2188C19.0625 28.8872 18.9308 28.5693 18.6964 28.3349C18.462 28.1004 18.144 27.9688 17.8125 27.9688C17.481 27.9688 17.163 28.1004 16.9286 28.3349C16.6942 28.5693 16.5625 28.8872 16.5625 29.2188ZM16.5625 22.2656C16.5625 22.5971 16.6942 22.9151 16.9286 23.1495C17.163 23.3839 17.481 23.5156 17.8125 23.5156C18.144 23.5156 18.462 23.3839 18.6964 23.1495C18.9308 22.9151 19.0625 22.5971 19.0625 22.2656C19.0625 21.9341 18.9308 21.6162 18.6964 21.3817C18.462 21.1473 18.144 21.0156 17.8125 21.0156C17.481 21.0156 17.163 21.1473 16.9286 21.3817C16.6942 21.6162 16.5625 21.9341 16.5625 22.2656Z" fill="url(#paint1_linear_26_1551)"/>
<path d="M31.6954 14.4102C29.9064 9.6875 25.3478 6.32812 20.0079 6.32812C14.6681 6.32812 10.1095 9.68359 8.32043 14.4062C4.95715 15.293 2.48058 18.3672 2.50011 22.0156C2.52355 26.0938 5.68761 29.4102 9.67199 29.7656C9.85558 29.7812 10.0118 29.6367 10.0118 29.4531V27.0938C10.0118 26.9375 9.89465 26.8047 9.7384 26.7852C8.68371 26.6523 7.68761 26.1914 6.92199 25.4375C5.98449 24.5195 5.46886 23.2852 5.46886 21.9766C5.46886 20.8828 5.82433 19.8516 6.4923 18.9922C7.14465 18.1563 8.06261 17.5508 9.07433 17.2852L10.5548 16.8945L11.0978 15.4609C11.4337 14.5703 11.9025 13.7344 12.4923 12.9805C13.0743 12.2305 13.7657 11.5742 14.5392 11.0273C16.1446 9.89844 18.0353 9.30078 20.0079 9.30078C21.9806 9.30078 23.8712 9.89844 25.4767 11.0312C26.254 11.5781 26.9415 12.2344 27.5236 12.9844C28.1134 13.7383 28.5821 14.5742 28.9181 15.4648L29.4571 16.8945L30.9337 17.2852C33.0509 17.8477 34.5314 19.7734 34.5314 21.9727C34.5314 23.2852 34.0157 24.5156 33.0782 25.4336C32.3165 26.1836 31.3243 26.6484 30.2696 26.7812C30.1134 26.8008 30.0001 26.9336 30.0001 27.0898V29.4531C30.0001 29.6367 30.1603 29.7812 30.3439 29.7656C34.3165 29.4062 37.4728 26.0938 37.5001 22.0234C37.5236 18.375 35.0509 15.3008 31.6954 14.4102Z" fill="url(#paint2_linear_26_1551)"/>
<defs>
<linearGradient id="paint0_linear_26_1551" x1="12.1875" y1="33.75" x2="28.4998" y2="18.1401" gradientUnits="userSpaceOnUse">
<stop stop-color="#6810B7"/>
<stop offset="1" stop-color="#0CA5DC"/>
</linearGradient>
<linearGradient id="paint1_linear_26_1551" x1="16.5625" y1="30.4687" x2="21.2357" y2="29.2329" gradientUnits="userSpaceOnUse">
<stop stop-color="#6810B7"/>
<stop offset="1" stop-color="#0CA5DC"/>
</linearGradient>
<linearGradient id="paint2_linear_26_1551" x1="2.5" y1="29.7668" x2="24.1729" y2="-2.5968" gradientUnits="userSpaceOnUse">
<stop stop-color="#6810B7"/>
<stop offset="1" stop-color="#0CA5DC"/>
</linearGradient>
</defs>
</svg>
