<svg width="40" height="40" viewBox="0 0 40 40" fill="none" xmlns="http://www.w3.org/2000/svg">
<path d="M18.3352 16.6667H21.6685V25.0001H18.3352V16.6667ZM18.3335 26.6667H21.6668V30.0001H18.3335V26.6667Z" fill="url(#paint0_linear_26_1504)"/>
<path d="M22.9467 6.99998C22.3667 5.90831 21.2367 5.22998 20.0001 5.22998C18.7634 5.22998 17.6334 5.90831 17.0534 7.00165L4.82341 30.1066C4.55202 30.614 4.41759 31.1834 4.43337 31.7586C4.44916 32.3338 4.61461 32.8949 4.91341 33.3866C5.20791 33.8806 5.62614 34.2892 6.12683 34.5722C6.62751 34.8551 7.19332 35.0026 7.76841 35H32.2317C33.4117 35 34.4801 34.3966 35.0884 33.3866C35.3867 32.8947 35.5519 32.3337 35.5677 31.7586C35.5835 31.1835 35.4493 30.6142 35.1784 30.1066L22.9467 6.99998ZM7.76841 31.6666L20.0001 8.56165L32.2401 31.6666H7.76841Z" fill="url(#paint1_linear_26_1504)"/>
<defs>
<linearGradient id="paint0_linear_26_1504" x1="18.3335" y1="30.0001" x2="24.6108" y2="28.43" gradientUnits="userSpaceOnUse">
<stop stop-color="#6810B7"/>
<stop offset="1" stop-color="#0CA5DC"/>
</linearGradient>
<linearGradient id="paint1_linear_26_1504" x1="4.43213" y1="35" x2="34.1722" y2="3.89455" gradientUnits="userSpaceOnUse">
<stop stop-color="#6810B7"/>
<stop offset="1" stop-color="#0CA5DC"/>
</linearGradient>
</defs>
</svg>
