<svg width="40" height="40" viewBox="0 0 40 40" fill="none" xmlns="http://www.w3.org/2000/svg">
<g clip-path="url(#clip0_26_1549)">
<path d="M36.7734 39.2656C37.0078 39.0234 37.1875 38.75 37.3125 38.4609C37.4375 38.1719 37.5 37.8516 37.5 37.5078V30C37.5 28.6172 36.3828 27.5 35 27.5C33.6172 27.5 32.5 28.6172 32.5 30V31.4609L24.2656 23.2344C23.3438 22.3125 21.8594 22.25 20.8672 23.1016L13.75 29.2109L6.625 23.1016C5.57812 22.2031 4 22.3281 3.10156 23.375C2.20312 24.4219 2.32812 26 3.375 26.8984L12.125 34.3984C13.0625 35.2031 14.4453 35.2031 15.3828 34.3984L22.375 28.4062L28.9609 35H27.5C26.1172 35 25 36.1172 25 37.5C25 38.8828 26.1172 40 27.5 40H35C35.6875 40 36.3125 39.7188 36.7656 39.2734L36.7734 39.2656ZM0 16.25C0 18.3203 1.67969 20 3.75 20H36.25C38.3203 20 40 18.3203 40 16.25V3.75C40 1.67969 38.3203 0 36.25 0H3.75C1.67969 0 0 1.67969 0 3.75V16.25ZM3.75 7.5V3.75H7.5C7.5 5.82031 5.82031 7.5 3.75 7.5ZM7.5 16.25H3.75V12.5C5.82031 12.5 7.5 14.1797 7.5 16.25ZM36.25 7.5C34.1797 7.5 32.5 5.82031 32.5 3.75H36.25V7.5ZM32.5 16.25C32.5 14.1797 34.1797 12.5 36.25 12.5V16.25H32.5ZM25 10C25 12.7578 22.7578 15 20 15C17.2422 15 15 12.7578 15 10C15 7.24219 17.2422 5 20 5C22.7578 5 25 7.24219 25 10Z" fill="url(#paint0_linear_26_1549)"/>
</g>
<defs>
<linearGradient id="paint0_linear_26_1549" x1="-1.80675e-08" y1="1.80675e-08" x2="40" y2="40" gradientUnits="userSpaceOnUse">
<stop stop-color="#6810B7"/>
<stop offset="1" stop-color="#0CA5DC"/>
</linearGradient>
<clipPath id="clip0_26_1549">
<rect width="40" height="40" fill="white" transform="matrix(1 0 0 -1 0 40)"/>
</clipPath>
</defs>
</svg>
