<svg width="40" height="40" viewBox="0 0 40 40" fill="none" xmlns="http://www.w3.org/2000/svg">
<path d="M20.0002 8.33341C23.7574 8.33341 27.3607 9.82597 30.0175 12.4827C32.6743 15.1395 34.1668 18.7428 34.1668 22.5001C34.1668 26.2573 32.6743 29.8607 30.0175 32.5174C27.3607 35.1742 23.7574 36.6667 20.0002 36.6667C16.2429 36.6667 12.6396 35.1742 9.98282 32.5174C7.32605 29.8607 5.8335 26.2573 5.8335 22.5001C5.8335 18.7428 7.32605 15.1395 9.98282 12.4827C12.6396 9.82597 16.2429 8.33341 20.0002 8.33341ZM20.0002 10.8334C16.906 10.8334 13.9385 12.0626 11.7506 14.2505C9.56266 16.4384 8.3335 19.4059 8.3335 22.5001C8.3335 25.5943 9.56266 28.5617 11.7506 30.7497C13.9385 32.9376 16.906 34.1667 20.0002 34.1667C23.0944 34.1667 26.0618 32.9376 28.2497 30.7497C30.4377 28.5617 31.6668 25.5943 31.6668 22.5001C31.6668 19.4059 30.4377 16.4384 28.2497 14.2505C26.0618 12.0626 23.0944 10.8334 20.0002 10.8334ZM20.0002 13.3334C20.3022 13.3334 20.5941 13.4428 20.8217 13.6414C21.0494 13.8399 21.1974 14.1142 21.2385 14.4134L21.2502 14.5834V22.0834C21.2501 22.4001 21.1298 22.705 20.9135 22.9364C20.6973 23.1678 20.4013 23.3085 20.0854 23.3301C19.7694 23.3517 19.457 23.2526 19.2113 23.0527C18.9657 22.8528 18.805 22.5672 18.7618 22.2534L18.7502 22.0834V14.5834C18.7502 14.2519 18.8819 13.934 19.1163 13.6995C19.3507 13.4651 19.6686 13.3334 20.0002 13.3334ZM31.9118 8.52341L32.0502 8.62341L33.9802 10.2301C34.2218 10.4333 34.3776 10.7205 34.4162 11.0339C34.4548 11.3473 34.3734 11.6637 34.1883 11.9195C34.0032 12.1753 33.7281 12.3516 33.4184 12.4129C33.1086 12.4743 32.7871 12.4161 32.5185 12.2501L32.3818 12.1501L30.4502 10.5434C30.2085 10.3402 30.0527 10.053 30.0141 9.7396C29.9755 9.4262 30.0569 9.10981 30.242 8.85399C30.4272 8.59817 30.7022 8.42189 31.012 8.36056C31.3217 8.29924 31.6432 8.35742 31.9118 8.52341ZM23.7502 4.16675C24.0669 4.16685 24.3717 4.28716 24.6031 4.50337C24.8346 4.71958 24.9753 5.01558 24.9969 5.33155C25.0185 5.64752 24.9193 5.9599 24.7194 6.20558C24.5196 6.45126 24.2339 6.61191 23.9202 6.65508L23.7502 6.66675H16.2502C15.9335 6.66665 15.6286 6.54634 15.3972 6.33013C15.1658 6.11391 15.025 5.81792 15.0035 5.50195C14.9819 5.18598 15.081 4.87359 15.2809 4.62792C15.4807 4.38224 15.7664 4.22158 16.0802 4.17841L16.2502 4.16675H23.7502Z" fill="url(#paint0_linear_26_1502)"/>
<defs>
<linearGradient id="paint0_linear_26_1502" x1="5.8335" y1="36.6667" x2="38.0686" y2="8.30768" gradientUnits="userSpaceOnUse">
<stop stop-color="#6810B7"/>
<stop offset="1" stop-color="#0CA5DC"/>
</linearGradient>
</defs>
</svg>
